{
    "streams": [
        {
            "index": 0,
            "codec_name": "h264",
            "codec_long_name": "H.264 / AVC / MPEG-4 AVC / MPEG-4 part 10",
            "profile": "High",
            "codec_type": "video",
            "codec_tag_string": "[0][0][0][0]",
            "codec_tag": "0x0000",
            "width": 1440,
            "height": 1080,
            "coded_width": 1440,
            "coded_height": 1080,
            "closed_captions": 0,
            "film_grain": 0,
            "has_b_frames": 2,
            "sample_aspect_ratio": "1:1",
            "display_aspect_ratio": "4:3",
            "pix_fmt": "yuv420p",
            "level": 41,
            "color_range": "tv",
            "color_space": "bt709",
            "color_transfer": "bt709",
            "color_primaries": "bt709",
            "chroma_location": "left",
            "field_order": "progressive",
            "refs": 1,
            "is_avc": "true",
            "nal_length_size": "4",
            "r_frame_rate": "30000/1001",
            "avg_frame_rate": "30000/1001",
            "time_base": "1/1000",
            "start_pts": 0,
            "start_time": "0.000000",
            "bits_per_raw_sample": "8",
            "extradata_size": 58,
            "disposition": {
                "default": 1,
                "dub": 0,
                "original": 0,
                "comment": 0,
                "lyrics": 0,
                "karaoke": 0,
                "forced": 0,
                "hearing_impaired": 0,
                "visual_impaired": 0,
                "clean_effects": 0,
                "attached_pic": 0,
                "timed_thumbnails": 0,
                "non_diegetic": 0,
                "captions": 0,
                "descriptions": 0,
                "metadata": 0,
                "dependent": 0,
                "still_image": 0
            },
            "tags": {
                "BPS": "7258299",
                "DURATION": "00:01:43.203000000",
                "NUMBER_OF_FRAMES": "3093",
                "NUMBER_OF_BYTES": "93634781",
                "_STATISTICS_WRITING_APP": "mkvmerge v85.0 ('Shame For You') 64-bit",
                "_STATISTICS_WRITING_DATE_UTC": "2024-07-26 20:33:53",
                "_STATISTICS_TAGS": "BPS DURATION NUMBER_OF_FRAMES NUMBER_OF_BYTES"
            }
        },
        {
            "index": 1,
            "codec_name": "ac3",
            "codec_long_name": "ATSC A/52A (AC-3)",
            "codec_type": "audio",
            "codec_tag_string": "[0][0][0][0]",
            "codec_tag": "0x0000",
            "sample_fmt": "fltp",
            "sample_rate": "48000",
            "channels": 2,
            "channel_layout": "stereo",
            "bits_per_sample": 0,
            "initial_padding": 0,
            "r_frame_rate": "0/0",
            "avg_frame_rate": "0/0",
            "time_base": "1/1000",
            "start_pts": 9,
            "start_time": "0.009000",
            "bit_rate": "192000",
            "disposition": {
                "default": 0,
                "dub": 0,
                "original": 0,
                "comment": 0,
                "lyrics": 0,
                "karaoke": 0,
                "forced": 0,
                "hearing_impaired": 0,
                "visual_impaired": 0,
                "clean_effects": 0,
                "attached_pic": 0,
                "timed_thumbnails": 0,
                "non_diegetic": 0,
                "captions": 0,
                "descriptions": 0,
                "metadata": 0,
                "dependent": 0,
                "still_image": 0
            },
            "tags": {
                "language": "spa",
                "title": "Castellano (Redoblaje)",
                "BPS": "192000",
                "DURATION": "00:01:43.200000000",
                "NUMBER_OF_FRAMES": "3225",
                "NUMBER_OF_BYTES": "2476800",
                "_STATISTICS_WRITING_APP": "mkvmerge v85.0 ('Shame For You') 64-bit",
                "_STATISTICS_WRITING_DATE_UTC": "2024-07-26 20:33:53",
                "_STATISTICS_TAGS": "BPS DURATION NUMBER_OF_FRAMES NUMBER_OF_BYTES"
            }
        },
        {
            "index": 2,
            "codec_name": "ac3",
            "codec_long_name": "ATSC A/52A (AC-3)",
            "codec_type": "audio",
            "codec_tag_string": "[0][0][0][0]",
            "codec_tag": "0x0000",
            "sample_fmt": "fltp",
            "sample_rate": "48000",
            "channels": 2,
            "channel_layout": "stereo",
            "bits_per_sample": 0,
            "initial_padding": 0,
            "r_frame_rate": "0/0",
            "avg_frame_rate": "0/0",
            "time_base": "1/1000",
            "start_pts": 9,
            "start_time": "0.009000",
            "bit_rate": "192000",
            "disposition": {
                "default": 0,
                "dub": 0,
                "original": 0,
                "comment": 0,
                "lyrics": 0,
                "karaoke": 0,
                "forced": 0,
                "hearing_impaired": 0,
                "visual_impaired": 0,
                "clean_effects": 0,
                "attached_pic": 0,
                "timed_thumbnails": 0,
                "non_diegetic": 0,
                "captions": 0,
                "descriptions": 0,
                "metadata": 0,
                "dependent": 0,
                "still_image": 0
            },
            "tags": {
                "language": "spa",
                "title": "Castellano",
                "BPS": "192000",
                "DURATION": "00:01:43.200000000",
                "NUMBER_OF_FRAMES": "3225",
                "NUMBER_OF_BYTES": "2476800",
                "_STATISTICS_WRITING_APP": "mkvmerge v85.0 ('Shame For You') 64-bit",
                "_STATISTICS_WRITING_DATE_UTC": "2024-07-26 20:33:53",
                "_STATISTICS_TAGS": "BPS DURATION NUMBER_OF_FRAMES NUMBER_OF_BYTES"
            }
        },
        {
            "index": 3,
            "codec_name": "ac3",
            "codec_long_name": "ATSC A/52A (AC-3)",
            "codec_type": "audio",
            "codec_tag_string": "[0][0][0][0]",
            "codec_tag": "0x0000",
            "sample_fmt": "fltp",
            "sample_rate": "48000",
            "channels": 2,
            "channel_layout": "stereo",
            "bits_per_sample": 0,
            "initial_padding": 0,
            "r_frame_rate": "0/0",
            "avg_frame_rate": "0/0",
            "time_base": "1/1000",
            "start_pts": 9,
            "start_time": "0.009000",
            "bit_rate": "192000",
            "disposition": {
                "default": 1,
                "dub": 0,
                "original": 0,
                "comment": 0,
                "lyrics": 0,
                "karaoke": 0,
                "forced": 1,
                "hearing_impaired": 0,
                "visual_impaired": 0,
                "clean_effects": 0,
                "attached_pic": 0,
                "timed_thumbnails": 0,
                "non_diegetic": 0,
                "captions": 0,
                "descriptions": 0,
                "metadata": 0,
                "dependent": 0,
                "still_image": 0
            },
            "tags": {
                "language": "cat",
                "title": "Catalán",
                "BPS": "192000",
                "DURATION": "00:01:43.200000000",
                "NUMBER_OF_FRAMES": "3225",
                "NUMBER_OF_BYTES": "2476800",
                "_STATISTICS_WRITING_APP": "mkvmerge v85.0 ('Shame For You') 64-bit",
                "_STATISTICS_WRITING_DATE_UTC": "2024-07-26 20:33:53",
                "_STATISTICS_TAGS": "BPS DURATION NUMBER_OF_FRAMES NUMBER_OF_BYTES"
            }
        },
        {
            "index": 4,
            "codec_name": "aac",
            "codec_long_name": "AAC (Advanced Audio Coding)",
            "profile": "LC",
            "codec_type": "audio",
            "codec_tag_string": "[0][0][0][0]",
            "codec_tag": "0x0000",
            "sample_fmt": "fltp",
            "sample_rate": "48000",
            "channels": 2,
            "channel_layout": "stereo",
            "bits_per_sample": 0,
            "initial_padding": 0,
            "r_frame_rate": "0/0",
            "avg_frame_rate": "0/0",
            "time_base": "1/1000",
            "start_pts": 9,
            "start_time": "0.009000",
            "extradata_size": 2,
            "disposition": {
                "default": 0,
                "dub": 0,
                "original": 0,
                "comment": 0,
                "lyrics": 0,
                "karaoke": 0,
                "forced": 0,
                "hearing_impaired": 0,
                "visual_impaired": 0,
                "clean_effects": 0,
                "attached_pic": 0,
                "timed_thumbnails": 0,
                "non_diegetic": 0,
                "captions": 0,
                "descriptions": 0,
                "metadata": 0,
                "dependent": 0,
                "still_image": 0
            },
            "tags": {
                "language": "jpn",
                "BPS": "268906",
                "DURATION": "00:01:43.211000000",
                "NUMBER_OF_FRAMES": "4838",
                "NUMBER_OF_BYTES": "3469264",
                "_STATISTICS_WRITING_APP": "mkvmerge v85.0 ('Shame For You') 64-bit",
                "_STATISTICS_WRITING_DATE_UTC": "2024-07-26 20:33:53",
                "_STATISTICS_TAGS": "BPS DURATION NUMBER_OF_FRAMES NUMBER_OF_BYTES"
            }
        },
        {
            "index": 5,
            "codec_name": "subrip",
            "codec_long_name": "SubRip subtitle",
            "codec_type": "subtitle",
            "codec_tag_string": "[0][0][0][0]",
            "codec_tag": "0x0000",
            "r_frame_rate": "0/0",
            "avg_frame_rate": "0/0",
            "time_base": "1/1000",
            "start_pts": 0,
            "start_time": "0.000000",
            "duration_ts": 106869,
            "duration": "106.869000",
            "disposition": {
                "default": 0,
                "dub": 0,
                "original": 0,
                "comment": 0,
                "lyrics": 0,
                "karaoke": 0,
                "forced": 0,
                "hearing_impaired": 0,
                "visual_impaired": 0,
                "clean_effects": 0,
                "attached_pic": 0,
                "timed_thumbnails": 0,
                "non_diegetic": 0,
                "captions": 0,
                "descriptions": 0,
                "metadata": 0,
                "dependent": 0,
                "still_image": 0
            },
            "tags": {
                "language": "spa",
                "title": "Español",
                "BPS": "37",
                "DURATION": "00:01:35.320000000",
                "NUMBER_OF_FRAMES": "14",
                "NUMBER_OF_BYTES": "451",
                "_STATISTICS_WRITING_APP": "mkvmerge v85.0 ('Shame For You') 64-bit",
                "_STATISTICS_WRITING_DATE_UTC": "2024-07-26 20:33:53",
                "_STATISTICS_TAGS": "BPS DURATION NUMBER_OF_FRAMES NUMBER_OF_BYTES"
            }
        },
        {
            "index": 6,
            "codec_name": "ass",
            "codec_long_name": "ASS (Advanced SSA) subtitle",
            "codec_type": "subtitle",
            "codec_tag_string": "[0][0][0][0]",
            "codec_tag": "0x0000",
            "r_frame_rate": "0/0",
            "avg_frame_rate": "0/0",
            "time_base": "1/1000",
            "start_pts": 0,
            "start_time": "0.000000",
            "duration_ts": 106869,
            "duration": "106.869000",
            "extradata_size": 1723,
            "disposition": {
                "default": 0,
                "dub": 0,
                "original": 0,
                "comment": 0,
                "lyrics": 0,
                "karaoke": 0,
                "forced": 0,
                "hearing_impaired": 0,
                "visual_impaired": 0,
                "clean_effects": 0,
                "attached_pic": 0,
                "timed_thumbnails": 0,
                "non_diegetic": 0,
                "captions": 0,
                "descriptions": 0,
                "metadata": 0,
                "dependent": 0,
                "still_image": 0
            },
            "tags": {
                "language": "spa",
                "title": "Español (AHN TEAM)",
                "BPS": "89",
                "DURATION": "00:01:39.830000000",
                "NUMBER_OF_FRAMES": "15",
                "NUMBER_OF_BYTES": "1113",
                "_STATISTICS_WRITING_APP": "mkvmerge v85.0 ('Shame For You') 64-bit",
                "_STATISTICS_WRITING_DATE_UTC": "2024-07-26 20:33:53",
                "_STATISTICS_TAGS": "BPS DURATION NUMBER_OF_FRAMES NUMBER_OF_BYTES"
            }
        },
        {
            "index": 7,
            "codec_name": "ass",
            "codec_long_name": "ASS (Advanced SSA) subtitle",
            "codec_type": "subtitle",
            "codec_tag_string": "[0][0][0][0]",
            "codec_tag": "0x0000",
            "r_frame_rate": "0/0",
            "avg_frame_rate": "0/0",
            "time_base": "1/1000",
            "start_pts": 0,
            "start_time": "0.000000",
            "duration_ts": 106869,
            "duration": "106.869000",
            "extradata_size": 829,
            "disposition": {
                "default": 0,
                "dub": 0,
                "original": 0,
                "comment": 0,
                "lyrics": 0,
                "karaoke": 0,
                "forced": 0,
                "hearing_impaired": 0,
                "visual_impaired": 0,
                "clean_effects": 0,
                "attached_pic": 0,
                "timed_thumbnails": 0,
                "non_diegetic": 0,
                "captions": 0,
                "descriptions": 0,
                "metadata": 0,
                "dependent": 0,
                "still_image": 0
            },
            "tags": {
                "language": "eng",
                "title": "Inglés",
                "BPS": "69",
                "DURATION": "00:01:39.800000000",
                "NUMBER_OF_FRAMES": "15",
                "NUMBER_OF_BYTES": "863",
                "_STATISTICS_WRITING_APP": "mkvmerge v85.0 ('Shame For You') 64-bit",
                "_STATISTICS_WRITING_DATE_UTC": "2024-07-26 20:33:53",
                "_STATISTICS_TAGS": "BPS DURATION NUMBER_OF_FRAMES NUMBER_OF_BYTES"
            }
        },
        {
            "index": 8,
            "codec_name": "dvd_subtitle",
            "codec_long_name": "DVD subtitles",
            "codec_type": "subtitle",
            "codec_tag_string": "[0][0][0][0]",
            "codec_tag": "0x0000",
            "width": 720,
            "height": 480,
            "r_frame_rate": "0/0",
            "avg_frame_rate": "0/0",
            "time_base": "1/1000",
            "start_pts": 0,
            "start_time": "0.000000",
            "duration_ts": 106869,
            "duration": "106.869000",
            "extradata_size": 348,
            "disposition": {
                "default": 0,
                "dub": 0,
                "original": 0,
                "comment": 0,
                "lyrics": 0,
                "karaoke": 0,
                "forced": 0,
                "hearing_impaired": 0,
                "visual_impaired": 0,
                "clean_effects": 0,
                "attached_pic": 0,
                "timed_thumbnails": 0,
                "non_diegetic": 0,
                "captions": 0,
                "descriptions": 0,
                "metadata": 0,
                "dependent": 0,
                "still_image": 0
            },
            "tags": {
                "language": "eng",
                "title": "Inglés (Vobsub)",
                "BPS": "3430",
                "DURATION": "00:01:39.829000000",
                "NUMBER_OF_FRAMES": "15",
                "NUMBER_OF_BYTES": "42804",
                "_STATISTICS_WRITING_APP": "mkvmerge v85.0 ('Shame For You') 64-bit",
                "_STATISTICS_WRITING_DATE_UTC": "2024-07-26 20:33:53",
                "_STATISTICS_TAGS": "BPS DURATION NUMBER_OF_FRAMES NUMBER_OF_BYTES"
            }
        },
        {
            "index": 9,
            "codec_name": "mjpeg",
            "codec_long_name": "Motion JPEG",
            "profile": "Baseline",
            "codec_type": "video",
            "codec_tag_string": "[0][0][0][0]",
            "codec_tag": "0x0000",
            "width": 1024,
            "height": 768,
            "coded_width": 1024,
            "coded_height": 768,
            "closed_captions": 0,
            "film_grain": 0,
            "has_b_frames": 0,
            "sample_aspect_ratio": "1:1",
            "display_aspect_ratio": "4:3",
            "pix_fmt": "yuvj420p",
            "level": -99,
            "color_range": "pc",
            "color_space": "bt470bg",
            "chroma_location": "center",
            "refs": 1,
            "r_frame_rate": "90000/1",
            "avg_frame_rate": "0/0",
            "time_base": "1/90000",
            "start_pts": 0,
            "start_time": "0.000000",
            "duration_ts": 9618210,
            "duration": "106.869000",
            "bits_per_raw_sample": "8",
            "disposition": {
                "default": 0,
                "dub": 0,
                "original": 0,
                "comment": 0,
                "lyrics": 0,
                "karaoke": 0,
                "forced": 0,
                "hearing_impaired": 0,
                "visual_impaired": 0,
                "clean_effects": 0,
                "attached_pic": 1,
                "timed_thumbnails": 0,
                "non_diegetic": 0,
                "captions": 0,
                "descriptions": 0,
                "metadata": 0,
                "dependent": 0,
                "still_image": 0
            },
            "tags": {
                "filename": "NEMO",
                "mimetype": "image/jpeg",
                "title": "NEMO"
            }
        },
        {
            "index": 10,
            "codec_name": "ttf",
            "codec_long_name": "TrueType font",
            "codec_type": "attachment",
            "codec_tag_string": "[0][0][0][0]",
            "codec_tag": "0x0000",
            "r_frame_rate": "0/0",
            "avg_frame_rate": "0/0",
            "time_base": "1/90000",
            "start_pts": 0,
            "start_time": "0.000000",
            "duration_ts": 9618210,
            "duration": "106.869000",
            "extradata_size": 47864,
            "disposition": {
                "default": 0,
                "dub": 0,
                "original": 0,
                "comment": 0,
                "lyrics": 0,
                "karaoke": 0,
                "forced": 0,
                "hearing_impaired": 0,
                "visual_impaired": 0,
                "clean_effects": 0,
                "attached_pic": 0,
                "timed_thumbnails": 0,
                "non_diegetic": 0,
                "captions": 0,
                "descriptions": 0,
                "metadata": 0,
                "dependent": 0,
                "still_image": 0
            },
            "tags": {
                "filename": "BAARS___.TTF",
                "mimetype": "application/x-truetype-font"
            }
        }
    ],
    "format": {
        "filename": "E:/RELEASES/part1.mkv",
        "nb_streams": 11,
        "nb_programs": 0,
        "format_name": "matroska,webm",
        "format_long_name": "Matroska / WebM",
        "start_time": "0.000000",
        "duration": "106.869000",
        "size": "104697053",
        "bit_rate": "7837412",
        "probe_score": 100,
        "tags": {
            "title": "3x3 Ojos OVA 1 - Reencarnación (Cat-Esp-EspNew) 1440x1080 by ackman&NEMO",
            "encoder": "libebml v1.4.5 + libmatroska v1.7.1",
            "creation_time": "2024-07-26T20:33:53.000000Z"
        }
    }
}
